<svg width="1280" height="640" viewBox="0 0 1280 640" fill="none" xmlns="http://www.w3.org/2000/svg" role="img" aria-label="microsoft-security-skills">
  <!-- clean white GitHub-card background -->
  <rect width="1280" height="640" fill="#FFFFFF"/>
  <rect x="1" y="1" width="1278" height="638" fill="none" stroke="#D8DEE4" stroke-width="2"/>

  <!-- owner / repo heading (GitHub social-card style) -->
  <text x="90" y="172" font-family="Segoe UI, Inter, Arial, sans-serif" font-size="64" font-weight="400" fill="#57606A">vinayaklatthe /</text>
  <text x="90" y="262" font-family="Segoe UI, Inter, Arial, sans-serif" font-size="76" font-weight="700" fill="#1F2328">microsoft-</text>
  <text x="90" y="348" font-family="Segoe UI, Inter, Arial, sans-serif" font-size="76" font-weight="700" fill="#1F2328">security-skills</text>

  <!-- description -->
  <text x="90" y="436" font-family="Segoe UI, Inter, Arial, sans-serif" font-size="31" font-weight="400" fill="#57606A">56 Microsoft Security skills for AI agents - Defender,</text>
  <text x="90" y="480" font-family="Segoe UI, Inter, Arial, sans-serif" font-size="31" font-weight="400" fill="#57606A">Sentinel, Entra, Purview, Intune, and Security Copilot.</text>

  <!-- value stats (GitHub-stat row style) -->
  <g>
    <text x="92"  y="562" font-family="Segoe UI, Inter, Arial, sans-serif" font-size="42" font-weight="700" fill="#1F2328">56</text>
    <text x="92"  y="596" font-family="Segoe UI, Inter, Arial, sans-serif" font-size="22" font-weight="400" fill="#57606A">Skills</text>

    <text x="240" y="562" font-family="Segoe UI, Inter, Arial, sans-serif" font-size="42" font-weight="700" fill="#1F2328">6</text>
    <text x="240" y="596" font-family="Segoe UI, Inter, Arial, sans-serif" font-size="22" font-weight="400" fill="#57606A">Product areas</text>

    <text x="492" y="562" font-family="Segoe UI, Inter, Arial, sans-serif" font-size="42" font-weight="700" fill="#1F2328">5</text>
    <text x="492" y="596" font-family="Segoe UI, Inter, Arial, sans-serif" font-size="22" font-weight="400" fill="#57606A">Agent hosts</text>

    <text x="700" y="562" font-family="Segoe UI, Inter, Arial, sans-serif" font-size="42" font-weight="700" fill="#1F2328">MIT</text>
    <text x="700" y="596" font-family="Segoe UI, Inter, Arial, sans-serif" font-size="22" font-weight="400" fill="#57606A">Licensed</text>
  </g>

  <!-- Microsoft-style four-square mark (top right) -->
  <g transform="translate(1052, 96)">
    <rect x="0"  y="0"  width="86" height="86" fill="#F25022"/>
    <rect x="94" y="0"  width="86" height="86" fill="#7FBA00"/>
    <rect x="0"  y="94" width="86" height="86" fill="#00A4EF"/>
    <rect x="94" y="94" width="86" height="86" fill="#FFB900"/>
  </g>

  <!-- GitHub mark (bottom right) -->
  <g transform="translate(1186, 556)" fill="#1F2328">
    <path d="M24 0C10.7 0 0 10.7 0 24c0 10.6 6.9 19.6 16.4 22.8 1.2.2 1.6-.5 1.6-1.1v-4c-6.7 1.5-8.1-2.8-8.1-2.8-1.1-2.8-2.7-3.5-2.7-3.5-2.2-1.5.2-1.5.2-1.5 2.4.2 3.7 2.5 3.7 2.5 2.2 3.7 5.7 2.6 7.1 2 .2-1.6.8-2.6 1.5-3.2-5.3-.6-10.9-2.7-10.9-11.9 0-2.6.9-4.8 2.5-6.5-.2-.6-1.1-3 .2-6.3 0 0 2-.6 6.6 2.5 1.9-.5 4-.8 6-.8s4.1.3 6 .8c4.6-3.1 6.6-2.5 6.6-2.5 1.3 3.3.5 5.7.2 6.3 1.5 1.7 2.5 3.9 2.5 6.5 0 9.2-5.6 11.3-11 11.9.9.7 1.6 2.2 1.6 4.4v6.5c0 .6.4 1.4 1.7 1.1C41.1 43.6 48 34.6 48 24 48 10.7 37.3 0 24 0z"/>
  </g>
</svg>
